<?xml version="1.0" standalone="no"?><!DOCTYPE svg PUBLIC "-//W3C//DTD SVG 1.1//EN" "http://www.w3.org/Graphics/SVG/1.1/DTD/svg11.dtd"><svg t="1753946969376" class="icon" viewBox="0 0 1024 1024" version="1.1" xmlns="http://www.w3.org/2000/svg" p-id="27769" width="32" height="32" xmlns:xlink="http://www.w3.org/1999/xlink"><path d="M834.8 433.31c-88.89 0-135.87 84.99-173.61 153.3-24.21 43.77-49.23 89.01-73.8 91.47-26.76-5.31-45.09-21.75-66.24-40.65-29.76-26.67-63.27-56.52-122.31-54.33-72 3.12-137.1 54.09-193.5 151.59a30 30 0 0 0 51.93 30.06c45.45-78.6 93.96-119.52 144.12-121.71 34.62-1.35 53.4 15.54 79.68 39.06 25.2 22.59 53.76 48.15 99.27 55.68a29.61 29.61 0 0 0 4.89 0.42c60.66 0 95.1-62.31 128.4-122.55 26.58-48.12 53.91-97.5 91.11-115.38v346.86H152V249.2h457.65a30 30 0 1 0 0-60H122a30 30 0 0 0-30 30v657.96a30 30 0 0 0 30 30h712.8a30 30 0 0 0 30-30V463.31a30 30 0 0 0-30-30z" p-id="27770" fill="#2c2c2c"></path><path d="M201.65 429.8c0 54.33 44.22 98.55 98.55 98.55s98.55-44.22 98.55-98.55-44.22-98.52-98.55-98.52-98.55 44.19-98.55 98.52z m137.1 0a38.58 38.58 0 0 1-77.1 0 38.58 38.58 0 0 1 77.1 0zM932 195.74h-57.54V138.2a30 30 0 1 0-60 0v57.51H737.6a30 30 0 1 0 0 60h76.86v76.86a30 30 0 1 0 60 0V255.74H932a30 30 0 1 0 0-60z" p-id="27771" fill="#2c2c2c"></path></svg>