<?xml version="1.0" standalone="no"?><!DOCTYPE svg PUBLIC "-//W3C//DTD SVG 1.1//EN" "http://www.w3.org/Graphics/SVG/1.1/DTD/svg11.dtd"><svg t="1759123176156" class="icon" viewBox="0 0 1024 1024" version="1.1" xmlns="http://www.w3.org/2000/svg" p-id="8832" width="32" height="32" xmlns:xlink="http://www.w3.org/1999/xlink"><path d="M106.666667 512a21.333333 21.333333 0 1 0 21.333333 21.333333 21.333333 21.333333 0 0 0-21.333333-21.333333z m21.333333-234.666667a21.333333 21.333333 0 1 1-21.333333-21.333333 21.333333 21.333333 0 0 1 21.333333 21.333333z m0-85.333333a21.333333 21.333333 0 1 1-21.333333-21.333333 21.333333 21.333333 0 0 1 21.333333 21.333333z m0 170.666667a21.333333 21.333333 0 1 1-21.333333-21.333334 21.333333 21.333333 0 0 1 21.333333 21.333334z m0 85.333333a21.333333 21.333333 0 1 1-21.333333-21.333333 21.333333 21.333333 0 0 1 21.333333 21.333333z m0 170.666667a21.333333 21.333333 0 1 1-21.333333-21.333334 21.333333 21.333333 0 0 1 21.333333 21.333334z m0 256a21.333333 21.333333 0 1 1-21.333333-21.333334 21.333333 21.333333 0 0 1 21.333333 21.333334z m0 85.333333a21.333333 21.333333 0 1 1-21.333333-21.333333 21.333333 21.333333 0 0 1 21.333333 21.333333z m0-170.666667a21.333333 21.333333 0 1 1-21.333333-21.333333 21.333333 21.333333 0 0 1 21.333333 21.333333z m0-85.333333a21.333333 21.333333 0 1 1-21.333333-21.333333 21.333333 21.333333 0 0 1 21.333333 21.333333z m0-597.333333a21.333333 21.333333 0 1 1-21.333333-21.333334 21.333333 21.333333 0 0 1 21.333333 21.333334z m426.666667 85.333333a21.333333 21.333333 0 1 1-21.333334-21.333333 21.333333 21.333333 0 0 1 21.333334 21.333333z m0 512a21.333333 21.333333 0 1 1-21.333334-21.333333 21.333333 21.333333 0 0 1 21.333334 21.333333z m0 85.333333a21.333333 21.333333 0 1 1-21.333334-21.333333 21.333333 21.333333 0 0 1 21.333334 21.333333z m0-341.333333a21.333333 21.333333 0 1 1-21.333334-21.333333 21.333333 21.333333 0 0 1 21.333334 21.333333z m0 426.666667a21.333333 21.333333 0 1 1-21.333334-21.333334 21.333333 21.333333 0 0 1 21.333334 21.333334z m0-256a21.333333 21.333333 0 1 1-21.333334-21.333334 21.333333 21.333333 0 0 1 21.333334 21.333334z m0-256a21.333333 21.333333 0 1 1-21.333334-21.333334 21.333333 21.333333 0 0 1 21.333334 21.333334z m0-85.333334a21.333333 21.333333 0 1 1-21.333334-21.333333 21.333333 21.333333 0 0 1 21.333334 21.333333zM384 960a21.333333 21.333333 0 1 1-21.333333-21.333333 21.333333 21.333333 0 0 1 21.333333 21.333333z m-85.333333 0a21.333333 21.333333 0 1 1-21.333334-21.333333 21.333333 21.333333 0 0 1 21.333334 21.333333z m-85.333334 0a21.333333 21.333333 0 1 1-21.333333-21.333333 21.333333 21.333333 0 0 1 21.333333 21.333333z m341.333334 0a21.333333 21.333333 0 1 1-21.333334-21.333333 21.333333 21.333333 0 0 1 21.333334 21.333333z m-85.333334 0a21.333333 21.333333 0 1 1-21.333333-21.333333 21.333333 21.333333 0 0 1 21.333333 21.333333z m341.333334 0a21.333333 21.333333 0 1 1-21.333334-21.333333 21.333333 21.333333 0 0 1 21.333334 21.333333z m85.333333 0a21.333333 21.333333 0 1 1-21.333333-21.333333 21.333333 21.333333 0 0 1 21.333333 21.333333z m-256 0a21.333333 21.333333 0 1 1-21.333333-21.333333 21.333333 21.333333 0 0 1 21.333333 21.333333z m85.333333 0a21.333333 21.333333 0 1 1-21.333333-21.333333 21.333333 21.333333 0 0 1 21.333333 21.333333z m170.666667-426.666667a21.333333 21.333333 0 1 1-21.333333-21.333333 21.333333 21.333333 0 0 1 21.333333 21.333333z m-85.333333 0a21.333333 21.333333 0 1 1-21.333334-21.333333 21.333333 21.333333 0 0 1 21.333334 21.333333z m-341.333334 0a21.333333 21.333333 0 1 1-21.333333-21.333333 21.333333 21.333333 0 0 1 21.333333 21.333333z m170.666667 0a21.333333 21.333333 0 1 1-21.333333-21.333333 21.333333 21.333333 0 0 1 21.333333 21.333333z m85.333333 0a21.333333 21.333333 0 1 1-21.333333-21.333333 21.333333 21.333333 0 0 1 21.333333 21.333333z m-512 0a21.333333 21.333333 0 1 1-21.333333-21.333333 21.333333 21.333333 0 0 1 21.333333 21.333333z m170.666667 0a21.333333 21.333333 0 1 1-21.333333-21.333333 21.333333 21.333333 0 0 1 21.333333 21.333333z m-85.333333 0a21.333333 21.333333 0 1 1-21.333334-21.333333 21.333333 21.333333 0 0 1 21.333334 21.333333z m256 0a21.333333 21.333333 0 1 1-21.333334-21.333333 21.333333 21.333333 0 0 1 21.333334 21.333333z m341.333333-426.666666a21.333333 21.333333 0 1 1-21.333333-21.333334 21.333333 21.333333 0 0 1 21.333333 21.333334z m-85.333333 0a21.333333 21.333333 0 1 1-21.333334-21.333334 21.333333 21.333333 0 0 1 21.333334 21.333334z m-512 0a21.333333 21.333333 0 1 1-21.333334-21.333334 21.333333 21.333333 0 0 1 21.333334 21.333334z m170.666666 0a21.333333 21.333333 0 1 1-21.333333-21.333334 21.333333 21.333333 0 0 1 21.333333 21.333334z m-85.333333 0a21.333333 21.333333 0 1 1-21.333333-21.333334 21.333333 21.333333 0 0 1 21.333333 21.333334z m170.666667 0a21.333333 21.333333 0 1 1-21.333334-21.333334 21.333333 21.333333 0 0 1 21.333334 21.333334z m85.333333 0a21.333333 21.333333 0 1 1-21.333333-21.333334 21.333333 21.333333 0 0 1 21.333333 21.333334z m85.333333 0a21.333333 21.333333 0 1 1-21.333333-21.333334 21.333333 21.333333 0 0 1 21.333333 21.333334z m-512 0a21.333333 21.333333 0 1 1-21.333333-21.333334 21.333333 21.333333 0 0 1 21.333333 21.333334z m725.333334 853.333333V106.666667a21.333333 21.333333 0 0 1 42.666666 0v853.333333a21.333333 21.333333 0 0 1-42.666666 0z" fill="#2c2c2c" p-id="8833"></path></svg>