<?xml version="1.0" standalone="no"?><!DOCTYPE svg PUBLIC "-//W3C//DTD SVG 1.1//EN" "http://www.w3.org/Graphics/SVG/1.1/DTD/svg11.dtd"><svg t="1759119141130" class="icon" viewBox="0 0 1024 1024" version="1.1" xmlns="http://www.w3.org/2000/svg" p-id="5922" width="32" height="32" xmlns:xlink="http://www.w3.org/1999/xlink"><path d="M928 981.333333H138.666667a53.393333 53.393333 0 0 1-53.333334-53.333333V138.666667a53.393333 53.393333 0 0 1 53.333334-53.333334h789.333333a53.393333 53.393333 0 0 1 53.333333 53.333334v789.333333a53.393333 53.393333 0 0 1-53.333333 53.333333z m-373.333333-42.666666h373.333333a10.666667 10.666667 0 0 0 10.666667-10.666667V554.666667H554.666667zM128 554.666667v373.333333a10.666667 10.666667 0 0 0 10.666667 10.666667h373.333333V554.666667z m426.666667-42.666667h384V138.666667a10.666667 10.666667 0 0 0-10.666667-10.666667H554.666667z m-426.666667 0h384V128H138.666667a10.666667 10.666667 0 0 0-10.666667 10.666667z" fill="#2c2c2c" p-id="5923"></path></svg>