<?xml version="1.0" standalone="no"?><!DOCTYPE svg PUBLIC "-//W3C//DTD SVG 1.1//EN" "http://www.w3.org/Graphics/SVG/1.1/DTD/svg11.dtd"><svg t="1759123222235" class="icon" viewBox="0 0 1024 1024" version="1.1" xmlns="http://www.w3.org/2000/svg" p-id="9480" width="32" height="32" xmlns:xlink="http://www.w3.org/1999/xlink"><path d="M725.333333 960a21.333333 21.333333 0 1 1-21.333333-21.333333 21.333333 21.333333 0 0 1 21.333333 21.333333z m-106.666666-21.333333a21.333333 21.333333 0 1 0 21.333333 21.333333 21.333333 21.333333 0 0 0-21.333333-21.333333z m170.666666 0a21.333333 21.333333 0 1 0 21.333334 21.333333 21.333333 21.333333 0 0 0-21.333334-21.333333z m85.333334 0a21.333333 21.333333 0 1 0 21.333333 21.333333 21.333333 21.333333 0 0 0-21.333333-21.333333z m-682.666667 0a21.333333 21.333333 0 1 0 21.333333 21.333333 21.333333 21.333333 0 0 0-21.333333-21.333333z m-85.333333 0a21.333333 21.333333 0 1 0 21.333333 21.333333 21.333333 21.333333 0 0 0-21.333333-21.333333z m853.333333 0a21.333333 21.333333 0 1 0 21.333333 21.333333 21.333333 21.333333 0 0 0-21.333333-21.333333z m-512 0a21.333333 21.333333 0 1 0 21.333333 21.333333 21.333333 21.333333 0 0 0-21.333333-21.333333z m-85.333333 0a21.333333 21.333333 0 1 0 21.333333 21.333333 21.333333 21.333333 0 0 0-21.333333-21.333333z m-85.333334 0a21.333333 21.333333 0 1 0 21.333334 21.333333 21.333333 21.333333 0 0 0-21.333334-21.333333z m682.666667-426.666667H554.666667V106.666667a21.333333 21.333333 0 0 0-42.626667-1.293334c0 0.426667-0.04 0.86-0.04 1.293334v405.333333H106.666667a21.333333 21.333333 0 0 0 0 42.666667h405.333333v405.333333a21.333333 21.333333 0 0 0 42.666667 0V554.666667h405.333333a21.333333 21.333333 0 0 0 0-42.666667zM106.666667 853.333333a21.333333 21.333333 0 1 0 21.333333 21.333334 21.333333 21.333333 0 0 0-21.333333-21.333334z m0-85.333333a21.333333 21.333333 0 1 0 21.333333 21.333333 21.333333 21.333333 0 0 0-21.333333-21.333333z m0-85.333333a21.333333 21.333333 0 1 0 21.333333 21.333333 21.333333 21.333333 0 0 0-21.333333-21.333333z m0-469.333334a21.333333 21.333333 0 1 0-21.333334-21.333333 21.333333 21.333333 0 0 0 21.333334 21.333333z m0 256a21.333333 21.333333 0 1 0-21.333334-21.333333 21.333333 21.333333 0 0 0 21.333334 21.333333z m0 128a21.333333 21.333333 0 1 0 21.333333 21.333334 21.333333 21.333333 0 0 0-21.333333-21.333334z m0-213.333333a21.333333 21.333333 0 1 0-21.333334-21.333333 21.333333 21.333333 0 0 0 21.333334 21.333333z m0-85.333333a21.333333 21.333333 0 1 0-21.333334-21.333334 21.333333 21.333333 0 0 0 21.333334 21.333334z m853.333333 298.666666a21.333333 21.333333 0 1 0 21.333333 21.333334 21.333333 21.333333 0 0 0-21.333333-21.333334z m0 85.333334a21.333333 21.333333 0 1 0 21.333333 21.333333 21.333333 21.333333 0 0 0-21.333333-21.333333z m0-512a21.333333 21.333333 0 1 0 21.333333 21.333333 21.333333 21.333333 0 0 0-21.333333-21.333333z m0 597.333333a21.333333 21.333333 0 1 0 21.333333 21.333333 21.333333 21.333333 0 0 0-21.333333-21.333333z m0 85.333333a21.333333 21.333333 0 1 0 21.333333 21.333334 21.333333 21.333333 0 0 0-21.333333-21.333334z m0-512a21.333333 21.333333 0 1 0 21.333333 21.333334 21.333333 21.333333 0 0 0-21.333333-21.333334z m0-85.333333a21.333333 21.333333 0 1 0 21.333333 21.333333 21.333333 21.333333 0 0 0-21.333333-21.333333z m0 170.666667a21.333333 21.333333 0 1 0 21.333333 21.333333 21.333333 21.333333 0 0 0-21.333333-21.333333z m-170.666667-298.666667a21.333333 21.333333 0 1 0-21.333333-21.333333 21.333333 21.333333 0 0 0 21.333333 21.333333z m-85.333333 0a21.333333 21.333333 0 1 0-21.333333-21.333333 21.333333 21.333333 0 0 0 21.333333 21.333333z m-85.333333 0a21.333333 21.333333 0 1 0-21.333334-21.333333 21.333333 21.333333 0 0 0 21.333334 21.333333z m256 0a21.333333 21.333333 0 1 0-21.333334-21.333333 21.333333 21.333333 0 0 0 21.333334 21.333333z m85.333333 0a21.333333 21.333333 0 1 0-21.333333-21.333333 21.333333 21.333333 0 0 0 21.333333 21.333333z m-682.666667 0a21.333333 21.333333 0 1 0-21.333333-21.333333 21.333333 21.333333 0 0 0 21.333333 21.333333z m170.666667 0a21.333333 21.333333 0 1 0-21.333333-21.333333 21.333333 21.333333 0 0 0 21.333333 21.333333z m-256 0a21.333333 21.333333 0 1 0-21.333333-21.333333 21.333333 21.333333 0 0 0 21.333333 21.333333z m-85.333333 0a21.333333 21.333333 0 1 0-21.333334-21.333333 21.333333 21.333333 0 0 0 21.333334 21.333333z m256 0a21.333333 21.333333 0 1 0-21.333334-21.333333 21.333333 21.333333 0 0 0 21.333334 21.333333z" fill="#2c2c2c" p-id="9481"></path></svg>