<?xml version="1.0" standalone="no"?><!DOCTYPE svg PUBLIC "-//W3C//DTD SVG 1.1//EN" "http://www.w3.org/Graphics/SVG/1.1/DTD/svg11.dtd"><svg t="1759123160597" class="icon" viewBox="0 0 1024 1024" version="1.1" xmlns="http://www.w3.org/2000/svg" p-id="8466" width="32" height="32" xmlns:xlink="http://www.w3.org/1999/xlink"><path d="M960 512a21.333333 21.333333 0 1 1-21.333333 21.333333 21.333333 21.333333 0 0 1 21.333333-21.333333z m-21.333333-234.666667a21.333333 21.333333 0 1 0 21.333333-21.333333 21.333333 21.333333 0 0 0-21.333333 21.333333z m0-85.333333a21.333333 21.333333 0 1 0 21.333333-21.333333 21.333333 21.333333 0 0 0-21.333333 21.333333z m0 170.666667a21.333333 21.333333 0 1 0 21.333333-21.333334 21.333333 21.333333 0 0 0-21.333333 21.333334z m0 85.333333a21.333333 21.333333 0 1 0 21.333333-21.333333 21.333333 21.333333 0 0 0-21.333333 21.333333z m0 170.666667a21.333333 21.333333 0 1 0 21.333333-21.333334 21.333333 21.333333 0 0 0-21.333333 21.333334z m0 256a21.333333 21.333333 0 1 0 21.333333-21.333334 21.333333 21.333333 0 0 0-21.333333 21.333334z m0 85.333333a21.333333 21.333333 0 1 0 21.333333-21.333333 21.333333 21.333333 0 0 0-21.333333 21.333333z m0-170.666667a21.333333 21.333333 0 1 0 21.333333-21.333333 21.333333 21.333333 0 0 0-21.333333 21.333333z m0-85.333333a21.333333 21.333333 0 1 0 21.333333-21.333333 21.333333 21.333333 0 0 0-21.333333 21.333333z m0-597.333333a21.333333 21.333333 0 1 0 21.333333-21.333334 21.333333 21.333333 0 0 0-21.333333 21.333334zM512 192a21.333333 21.333333 0 1 0 21.333333-21.333333 21.333333 21.333333 0 0 0-21.333333 21.333333z m0 512a21.333333 21.333333 0 1 0 21.333333-21.333333 21.333333 21.333333 0 0 0-21.333333 21.333333z m0 85.333333a21.333333 21.333333 0 1 0 21.333333-21.333333 21.333333 21.333333 0 0 0-21.333333 21.333333z m0-341.333333a21.333333 21.333333 0 1 0 21.333333-21.333333 21.333333 21.333333 0 0 0-21.333333 21.333333z m0 426.666667a21.333333 21.333333 0 1 0 21.333333-21.333334 21.333333 21.333333 0 0 0-21.333333 21.333334z m0-256a21.333333 21.333333 0 1 0 21.333333-21.333334 21.333333 21.333333 0 0 0-21.333333 21.333334z m0-256a21.333333 21.333333 0 1 0 21.333333-21.333334 21.333333 21.333333 0 0 0-21.333333 21.333334z m0-85.333334a21.333333 21.333333 0 1 0 21.333333-21.333333 21.333333 21.333333 0 0 0-21.333333 21.333333z m170.666667 682.666667a21.333333 21.333333 0 1 0 21.333333-21.333333 21.333333 21.333333 0 0 0-21.333333 21.333333z m85.333333 0a21.333333 21.333333 0 1 0 21.333333-21.333333 21.333333 21.333333 0 0 0-21.333333 21.333333z m85.333333 0a21.333333 21.333333 0 1 0 21.333334-21.333333 21.333333 21.333333 0 0 0-21.333334 21.333333z m-341.333333 0a21.333333 21.333333 0 1 0 21.333333-21.333333 21.333333 21.333333 0 0 0-21.333333 21.333333z m85.333333 0a21.333333 21.333333 0 1 0 21.333334-21.333333 21.333333 21.333333 0 0 0-21.333334 21.333333z m-341.333333 0a21.333333 21.333333 0 1 0 21.333333-21.333333 21.333333 21.333333 0 0 0-21.333333 21.333333z m-85.333333 0a21.333333 21.333333 0 1 0 21.333333-21.333333 21.333333 21.333333 0 0 0-21.333333 21.333333z m256 0a21.333333 21.333333 0 1 0 21.333333-21.333333 21.333333 21.333333 0 0 0-21.333333 21.333333z m-85.333334 0a21.333333 21.333333 0 1 0 21.333334-21.333333 21.333333 21.333333 0 0 0-21.333334 21.333333zM170.666667 533.333333a21.333333 21.333333 0 1 0 21.333333-21.333333 21.333333 21.333333 0 0 0-21.333333 21.333333z m85.333333 0a21.333333 21.333333 0 1 0 21.333333-21.333333 21.333333 21.333333 0 0 0-21.333333 21.333333z m341.333333 0a21.333333 21.333333 0 1 0 21.333334-21.333333 21.333333 21.333333 0 0 0-21.333334 21.333333z m-170.666666 0a21.333333 21.333333 0 1 0 21.333333-21.333333 21.333333 21.333333 0 0 0-21.333333 21.333333z m-85.333334 0a21.333333 21.333333 0 1 0 21.333334-21.333333 21.333333 21.333333 0 0 0-21.333334 21.333333z m512 0a21.333333 21.333333 0 1 0 21.333334-21.333333 21.333333 21.333333 0 0 0-21.333334 21.333333z m-170.666666 0a21.333333 21.333333 0 1 0 21.333333-21.333333 21.333333 21.333333 0 0 0-21.333333 21.333333z m85.333333 0a21.333333 21.333333 0 1 0 21.333333-21.333333 21.333333 21.333333 0 0 0-21.333333 21.333333z m-256 0a21.333333 21.333333 0 1 0 21.333333-21.333333 21.333333 21.333333 0 0 0-21.333333 21.333333zM170.666667 106.666667a21.333333 21.333333 0 1 0 21.333333-21.333334 21.333333 21.333333 0 0 0-21.333333 21.333334z m85.333333 0a21.333333 21.333333 0 1 0 21.333333-21.333334 21.333333 21.333333 0 0 0-21.333333 21.333334z m512 0a21.333333 21.333333 0 1 0 21.333333-21.333334 21.333333 21.333333 0 0 0-21.333333 21.333334z m-170.666667 0a21.333333 21.333333 0 1 0 21.333334-21.333334 21.333333 21.333333 0 0 0-21.333334 21.333334z m85.333334 0a21.333333 21.333333 0 1 0 21.333333-21.333334 21.333333 21.333333 0 0 0-21.333333 21.333334z m-170.666667 0a21.333333 21.333333 0 1 0 21.333333-21.333334 21.333333 21.333333 0 0 0-21.333333 21.333334z m-85.333333 0a21.333333 21.333333 0 1 0 21.333333-21.333334 21.333333 21.333333 0 0 0-21.333333 21.333334z m-85.333334 0a21.333333 21.333333 0 1 0 21.333334-21.333334 21.333333 21.333333 0 0 0-21.333334 21.333334z m512 0a21.333333 21.333333 0 1 0 21.333334-21.333334 21.333333 21.333333 0 0 0-21.333334 21.333334zM128 960V106.666667a21.333333 21.333333 0 0 0-42.666667 0v853.333333a21.333333 21.333333 0 0 0 42.666667 0z" fill="#2c2c2c" p-id="8467"></path></svg>