<?xml version="1.0" standalone="no"?><!DOCTYPE svg PUBLIC "-//W3C//DTD SVG 1.1//EN" "http://www.w3.org/Graphics/SVG/1.1/DTD/svg11.dtd"><svg t="1759123276256" class="icon" viewBox="0 0 1024 1024" version="1.1" xmlns="http://www.w3.org/2000/svg" p-id="10598" width="32" height="32" xmlns:xlink="http://www.w3.org/1999/xlink"><path d="M928 85.333333H138.666667a53.393333 53.393333 0 0 0-53.333334 53.333334v789.333333a53.393333 53.393333 0 0 0 53.333334 53.333333h789.333333a53.393333 53.393333 0 0 0 53.333333-53.333333V138.666667a53.393333 53.393333 0 0 0-53.333333-53.333334z m10.666667 842.666667a10.666667 10.666667 0 0 1-10.666667 10.666667H138.666667a10.666667 10.666667 0 0 1-10.666667-10.666667V138.666667a10.666667 10.666667 0 0 1 10.666667-10.666667h789.333333a10.666667 10.666667 0 0 1 10.666667 10.666667zM384 533.333333a21.333333 21.333333 0 1 1-21.333333-21.333333 21.333333 21.333333 0 0 1 21.333333 21.333333z m-170.666667 0a21.333333 21.333333 0 1 1-21.333333-21.333333 21.333333 21.333333 0 0 1 21.333333 21.333333z m85.333334 0a21.333333 21.333333 0 1 1-21.333334-21.333333 21.333333 21.333333 0 0 1 21.333334 21.333333z m170.666666 0a21.333333 21.333333 0 1 1-21.333333-21.333333 21.333333 21.333333 0 0 1 21.333333 21.333333z m256 0a21.333333 21.333333 0 1 1-21.333333-21.333333 21.333333 21.333333 0 0 1 21.333333 21.333333z m85.333334 0a21.333333 21.333333 0 1 1-21.333334-21.333333 21.333333 21.333333 0 0 1 21.333334 21.333333z m-170.666667 0a21.333333 21.333333 0 1 1-21.333333-21.333333 21.333333 21.333333 0 0 1 21.333333 21.333333z m256 0a21.333333 21.333333 0 1 1-21.333333-21.333333 21.333333 21.333333 0 0 1 21.333333 21.333333z m-341.333333 341.333334a21.333333 21.333333 0 1 1-21.333334-21.333334 21.333333 21.333333 0 0 1 21.333334 21.333334z m0-597.333334a21.333333 21.333333 0 1 1-21.333334-21.333333 21.333333 21.333333 0 0 1 21.333334 21.333333z m0-85.333333a21.333333 21.333333 0 1 1-21.333334-21.333333 21.333333 21.333333 0 0 1 21.333334 21.333333z m0 597.333333a21.333333 21.333333 0 1 1-21.333334-21.333333 21.333333 21.333333 0 0 1 21.333334 21.333333z m0-426.666666a21.333333 21.333333 0 1 1-21.333334-21.333334 21.333333 21.333333 0 0 1 21.333334 21.333334z m0 341.333333a21.333333 21.333333 0 1 1-21.333334-21.333333 21.333333 21.333333 0 0 1 21.333334 21.333333z m0-256a21.333333 21.333333 0 1 1-21.333334-21.333333 21.333333 21.333333 0 0 1 21.333334 21.333333z m0 170.666667a21.333333 21.333333 0 1 1-21.333334-21.333334 21.333333 21.333333 0 0 1 21.333334 21.333334z m0-85.333334a21.333333 21.333333 0 1 1-21.333334-21.333333 21.333333 21.333333 0 0 1 21.333334 21.333333z" fill="#2c2c2c" p-id="10599"></path></svg>