<?xml version="1.0" standalone="no"?><!DOCTYPE svg PUBLIC "-//W3C//DTD SVG 1.1//EN" "http://www.w3.org/Graphics/SVG/1.1/DTD/svg11.dtd"><svg t="1753944386643" class="icon" viewBox="0 0 1024 1024" version="1.1" xmlns="http://www.w3.org/2000/svg" p-id="10702" width="32" height="32" xmlns:xlink="http://www.w3.org/1999/xlink"><path d="M872.615385 151.384615c-198.892308-198.892308-522.584615-198.892308-721.476923 0-198.892308 198.892308-198.892308 522.584615 0 721.476923 99.446154 99.446154 230.153846 149.169231 360.615384 149.169231S772.923077 972.307692 872.369231 872.861538c199.384615-199.138462 199.384615-522.584615 0.246154-721.476923z m-678.892308 42.338462C281.6 106.092308 396.8 62.030769 512 62.030769c105.846154 0 211.446154 37.415385 296.123077 111.507693L173.538462 807.876923c-154.584615-176.492308-148.184615-445.784615 20.184615-614.153846z m636.553846 636.553846c-168.369231 168.369231-437.661538 174.769231-614.4 20.184615L850.215385 216.123077c154.830769 176.492308 148.430769 445.784615-19.938462 614.153846z" fill="#2c2c2c" p-id="10703"></path></svg>