<?xml version="1.0" standalone="no"?><!DOCTYPE svg PUBLIC "-//W3C//DTD SVG 1.1//EN" "http://www.w3.org/Graphics/SVG/1.1/DTD/svg11.dtd"><svg t="1754044635447" class="icon" viewBox="0 0 1024 1024" version="1.1" xmlns="http://www.w3.org/2000/svg" p-id="12971" width="32" height="32" xmlns:xlink="http://www.w3.org/1999/xlink"><path d="M554.666667 85.333333C507.733333 85.333333 469.333333 123.733333 469.333333 170.666667L469.333333 853.333333C469.333333 900.266667 507.733333 938.666667 554.666667 938.666667L938.666667 938.666667 938.666667 85.333333 554.666667 85.333333M853.333333 426.666667 853.333333 597.333333 554.666667 597.333333 554.666667 426.666667 853.333333 426.666667M853.333333 682.666667 853.333333 853.333333 554.666667 853.333333 554.666667 682.666667 853.333333 682.666667M853.333333 170.666667 853.333333 341.333333 554.666667 341.333333 554.666667 170.666667 853.333333 170.666667M384 469.333333 256 469.333333 256 341.333333 170.666667 341.333333 170.666667 469.333333 42.666667 469.333333 42.666667 554.666667 170.666667 554.666667 170.666667 682.666667 256 682.666667 256 554.666667 384 554.666667 384 469.333333Z" p-id="12972" fill="#2c2c2c"></path></svg>