<?xml version="1.0" standalone="no"?><!DOCTYPE svg PUBLIC "-//W3C//DTD SVG 1.1//EN" "http://www.w3.org/Graphics/SVG/1.1/DTD/svg11.dtd"><svg t="1754044776539" class="icon" viewBox="0 0 1024 1024" version="1.1" xmlns="http://www.w3.org/2000/svg" p-id="15041" width="32" height="32" xmlns:xlink="http://www.w3.org/1999/xlink"><path d="M173.634783 93.990338h294.83285q35.617391 0 60.351691 24.7343t24.734299 60.351691v674.75169q0 35.617391-24.734299 60.351691t-60.351691 24.7343H173.634783q-35.617391 0-60.351691-24.7343t-24.7343-60.351691V179.076329q0-35.617391 24.7343-60.351691t60.351691-24.7343z m0 338.365218v168.193236h294.83285V432.355556z m0 253.279227v168.193236h294.83285V685.634783z m0-506.558454v168.193236h294.83285V179.076329z m573.835748 337.375845L637.650242 406.631884l59.362318-59.362319 109.82029 109.82029 108.830918-109.82029 59.362319 59.362319-108.830918 109.82029 108.830918 109.82029-59.362319 59.362319-108.830918-109.82029-109.82029 109.82029-59.362318-59.362319z" p-id="15042" fill="#2c2c2c"></path></svg>