<?xml version="1.0" standalone="no"?><!DOCTYPE svg PUBLIC "-//W3C//DTD SVG 1.1//EN" "http://www.w3.org/Graphics/SVG/1.1/DTD/svg11.dtd"><svg t="1758819595723" class="icon" viewBox="0 0 1024 1024" version="1.1" xmlns="http://www.w3.org/2000/svg" p-id="9051" width="32" height="32" xmlns:xlink="http://www.w3.org/1999/xlink"><path d="M838.802286 442.294857l-380.050286 352.146286a23.405714 23.405714 0 0 1-31.817143 0L81.444571 474.331429a23.405714 23.405714 0 0 1 0-34.340572l327.533715-303.506286H215.954286a31.670857 31.670857 0 1 1 0-63.341714h261.376l361.472 334.811429a23.405714 23.405714 0 0 1 0 34.377143zM477.366857 162.742857l-299.190857 277.211429a23.405714 23.405714 0 0 0 0 34.377143l264.667429 245.248 317.732571-294.4-283.209143-262.436572z m394.605714 316.342857l16.603429 19.017143 7.606857 8.923429 13.641143 16.713143c25.417143 31.890286 38.985143 54.345143 40.704 67.364571 3.291429 28.013714-17.737143 53.284571-46.994286 56.466286l-0.621714 0.036571c-29.988571 3.401143-57.307429-16.420571-60.964571-44.141714-1.097143-8.118857 0.219429-20.626286 3.949714-37.485714l3.730286-15.506286 4.937142-17.737143 2.889143-9.618286 6.692572-20.955428c2.340571-7.350857 5.010286-15.067429 7.789714-23.076572z m-429.129142 330.130286L80.237714 473.234286a21.942857 21.942857 0 0 1-0.036571-32.146286h759.917714L442.843429 809.179429z m482.194285 84.114286c0 31.817143-25.746286 57.563429-57.563428 57.563428H140.178286a57.563429 57.563429 0 1 1 0-115.126857H867.474286c31.817143 0 57.563429 25.746286 57.563428 57.563429z" p-id="9052" fill="#2c2c2c"></path></svg>