<?xml version="1.0" standalone="no"?><!DOCTYPE svg PUBLIC "-//W3C//DTD SVG 1.1//EN" "http://www.w3.org/Graphics/SVG/1.1/DTD/svg11.dtd"><svg t="1759208618495" class="icon" viewBox="0 0 1024 1024" version="1.1" xmlns="http://www.w3.org/2000/svg" p-id="7668" width="32" height="32" xmlns:xlink="http://www.w3.org/1999/xlink"><path d="M996.020273 218.697864H857.441627v139.658636q-1.079989 10.819894-9.19991 18.399821-8.119921 7.579926-18.399821 7.579926-10.2899 0-18.40982-7.579926-8.119921-7.579926-8.119921-18.399821V218.697864H663.653519q-9.739905 0-17.859825-8.11992t-8.119921-18.409821q0-10.2799 8.119921-18.40982 8.119921-8.119921 17.859825-8.119921H803.312155V25.979746q0-9.739905 8.119921-17.859825t18.40982-8.119921q10.2799 0 18.399821 8.119921t9.19991 17.859825v139.658636h138.578646q10.819894 0 18.399821 8.119921 7.579926 8.119921 8.659915 18.949815 3.249968 12.989873-4.869952 19.47981-8.119921 6.499937-22.189784 6.499936z m0 0zM763.252547 852.021679L422.235877 102.858996q-1.079989-3.249968-2.709974-4.879953t-1.629984-3.779963q-4.329958-17.319831-16.239841-27.059736-11.909884-9.739905-29.229715-9.739905-27.069736 0-40.059609 27.059736L4.339958 869.35151q0 3.249968-1.629984 7.579926t-2.709974 10.829894q1.079989 12.989873 8.659916 20.019805 7.579926 7.029931 17.859825 6.499936 10.2899-0.539995 17.319831-5.949941 7.039931-5.419947 10.2899-11.909884l94.18908-228.437769h462.275485l98.509038 215.437896q3.249968 6.499937 9.749905 11.919883 6.499937 5.409947 17.319831 5.409948 12.989873 0 21.649789-8.659916 8.659915-8.669915 9.739904-22.739778 3.249968-3.249968 1.07999-8.659915-2.159979-5.409947-5.409947-8.659916zM175.398287 613.844005l197.038076-470.925401q0 3.239968 2.169979 4.869953 2.159979 1.629984 2.159979 3.789963l211.107938 462.265485H175.398287z" fill="#2c2c2c" p-id="7669"></path></svg>