<?xml version="1.0" standalone="no"?><!DOCTYPE svg PUBLIC "-//W3C//DTD SVG 1.1//EN" "http://www.w3.org/Graphics/SVG/1.1/DTD/svg11.dtd"><svg t="1759224282742" class="icon" viewBox="0 0 1024 1024" version="1.1" xmlns="http://www.w3.org/2000/svg" p-id="1499" width="32" height="32" xmlns:xlink="http://www.w3.org/1999/xlink"><path d="M910.82041538 290.32648706H796.63512967v115.07517004q-0.88988351 8.91531793-7.58049225 15.16098533-6.69060874 6.24566657-15.16098532 6.24566656-8.47861633 0-15.16922424-6.24566656-6.69060874-6.24566657-6.69060874-15.16098533V290.32648706H636.95864907q-8.02543442 0-14.71604232-6.69060792t-6.69060873-15.16922507q0-8.47037659 6.69060872-15.16922424 6.69060874-6.69060874 14.71604233-6.69060873H752.03381912V131.53165106q0-8.02543442 6.69060874-14.71604233t15.16922424-6.69060873q8.47037659 0 15.16098532 6.69060873t7.58049225 14.71604234v115.07517002h114.18528571q8.91531793 0 15.16098532 6.69060874 6.24566657 6.69060874 7.13555008 15.61416642 2.67789112 10.70332553-4.0127168 16.05086883-6.69060874 5.35578306-18.2838186 5.35578223z m0 0zM719.02571926 812.16923013L438.03664182 194.87820104q-0.88988351-2.67789112-2.23294978-4.02095736t-1.34306542-3.11459353q-3.56777545-14.27110098-13.38121664-22.29653541-9.81344201-8.02543442-24.08454301-8.02543442-22.30477515 0-33.00810067 22.2965354L93.7010152 826.44857085q0 2.67789112-1.34306543 6.24566657t-2.23294977 8.92355769q0.88988351 10.70332553 7.13555091 16.49581099 6.24566657 5.79248465 14.71604233 5.35578223 8.47861633-0.44494217 14.27110098-4.90260031 5.80072439-4.46589871 8.47861633-9.81344201l77.60941039-188.22692149h380.90326218l81.16894611 177.51535621q2.67789112 5.35578306 8.03367416 9.82168094 5.35578306 4.45765897 14.27110099 4.45765979 10.70332553 0 17.83887643-7.13555091 7.13555008-7.14378983 8.02543359-18.7369997 2.67789112-2.67789112 0.88988434-7.13555007-1.77976785-4.45765897-4.45765897-7.13555091zM234.64873501 615.91687423l162.35437171-388.03057333q0 2.66965136 1.7880076 4.01271763 1.77976785 1.34306543 1.77976785 3.12283327l173.94758075 380.89502243H234.64873501z" p-id="1500" fill="currentColor"></path></svg>