<?xml version="1.0" standalone="no"?><!DOCTYPE svg PUBLIC "-//W3C//DTD SVG 1.1//EN" "http://www.w3.org/Graphics/SVG/1.1/DTD/svg11.dtd"><svg t="1759208599509" class="icon" viewBox="0 0 1024 1024" version="1.1" xmlns="http://www.w3.org/2000/svg" p-id="6593" width="32" height="32" xmlns:xlink="http://www.w3.org/1999/xlink"><path d="M996.020273 107.188953H654.993604q-10.819894 1.079989-18.399821 8.659916-7.579926 7.579926-7.579926 18.40982 0 10.819894 7.579926 18.939815 7.579926 8.119921 18.399821 8.119921h341.026669q10.819894 0 18.399821-8.119921 7.579926-8.119921 8.659915-18.949815 3.249968-10.819894-4.869952-18.39982-8.119921-7.579926-22.189784-8.659916zM763.252547 793.56225L422.235877 44.399566q-1.079989-3.249968-2.709974-4.339957-1.629984-1.089989-1.629984-4.329958-4.329958-17.329831-16.239841-26.529741-11.909884-9.19991-29.229715-9.19991-27.069736 0-40.059609 27.069736L4.339958 811.952071q0 3.249968-1.629984 7.039931t-2.709974 10.2799q1.079989 14.079863 8.659916 20.579799 7.579926 6.499937 17.859825 6.499936 10.2899 0 17.319831-5.419947 7.039931-5.409947 10.2899-12.989873l94.18908-228.427769h462.275485l98.509038 215.437896q3.249968 6.499937 9.749905 11.909884t17.319831 6.499936q12.989873-1.079989 21.649789-9.749905 8.659915-8.659915 9.739904-21.649788 3.249968-4.329958 1.07999-9.739905-2.159979-5.409947-5.409947-8.659916zM175.398287 555.384576L372.436363 84.449175q0 3.249968 2.169979 4.879953 2.159979 1.629984 2.159979 4.879952l211.107938 461.185496H175.398287z" fill="#666666" p-id="6594"></path></svg>