<?xml version="1.0" standalone="no"?><!DOCTYPE svg PUBLIC "-//W3C//DTD SVG 1.1//EN" "http://www.w3.org/Graphics/SVG/1.1/DTD/svg11.dtd"><svg t="1759224266479" class="icon" viewBox="0 0 1024 1024" version="1.1" xmlns="http://www.w3.org/2000/svg" p-id="1154" width="32" height="32" xmlns:xlink="http://www.w3.org/1999/xlink"><path d="M937.40844307 220.20904072H637.67797227q-9.50967246 0.94920908-16.17171768 7.61125429-6.66204434 6.66204434-6.66204433 16.18050586 0 9.50967246 6.66204433 16.64632178 6.66204434 7.13664932 16.17171768 7.13664931h299.7304708q9.50967246 0 16.17171768-7.13664931 6.66204434-7.13664932 7.61125341-16.65511084 2.85641719-9.50967246-4.28023125-16.1717168-7.13664932-6.66204434-19.50273984-7.6112543zM732.82743388 823.46682128L433.10575127 165.02305604q-0.94920908-2.85641719-2.38181309-3.81441533-1.43260312-0.95799815-1.43260312-3.80562715-3.80562715-15.23129677-14.27329775-23.31715517-10.46767148-8.08585839-25.69017921-8.0858584-23.79176016 0-35.20864071 23.79176016L65.81441621 839.62974989q0 2.85641719-1.43260312 6.18743936t-2.38181309 9.03506836q0.94920908 12.37487959 7.6112543 18.08771396 6.66204434 5.71283526 15.69711182 5.71283438 9.04385742 0 15.22250771-4.76362529 6.18743935-4.75483623 9.04385742-11.41688057l82.78337109-200.76659385h406.29681299l86.58020918 189.34971328q2.85641719 5.71283526 8.56925244 10.46767149t15.22250772 5.71283437q11.41688057-0.94920908 19.02813486-8.56925244 7.61125342-7.61125342 8.5604625-19.02813399 2.85641719-3.80562715 0.94920996-8.56046338-1.89841904-4.75483623-4.75483623-7.6112543zM216.15865068 614.13097499L389.33664717 200.2229077q0 2.85641719 1.90720811 4.2890212 1.89841904 1.43260312 1.89841904 4.28902031l185.54408613 405.33881484H216.15865068z" p-id="1155"></path></svg>