<?xml version="1.0" standalone="no"?><!DOCTYPE svg PUBLIC "-//W3C//DTD SVG 1.1//EN" "http://www.w3.org/Graphics/SVG/1.1/DTD/svg11.dtd"><svg t="1753940663849" class="icon" viewBox="0 0 1024 1024" version="1.1" xmlns="http://www.w3.org/2000/svg" p-id="9778" width="32" height="32" xmlns:xlink="http://www.w3.org/1999/xlink"><path d="M403.2 160h537.6a19.2 19.2 0 0 1 19.2 19.2v25.6a19.2 19.2 0 0 1-19.2 19.2H403.2a19.2 19.2 0 0 1-19.2-19.2v-25.6a19.2 19.2 0 0 1 19.2-19.2z m0 320h537.6a19.2 19.2 0 0 1 19.2 19.2v25.6a19.2 19.2 0 0 1-19.2 19.2H403.2a19.2 19.2 0 0 1-19.2-19.2v-25.6a19.2 19.2 0 0 1 19.2-19.2z m0 320h537.6a19.2 19.2 0 0 1 19.2 19.2v25.6a19.2 19.2 0 0 1-19.2 19.2H403.2a19.2 19.2 0 0 1-19.2-19.2v-25.6a19.2 19.2 0 0 1 19.2-19.2z" p-id="9779" fill="currentColor"></path><path d="M184.768 320h-52.736V135.808c-19.2 16.704-41.92 29.056-68.032 37.12v-44.416c13.76-4.16 28.672-12.096 44.8-23.68 16.128-11.712 27.2-25.28 33.216-40.832h42.752v256zM243.2 594.56V640H64a114.56 114.56 0 0 1 17.472-48.768c9.728-15.36 28.8-35.776 57.472-61.12 23.04-20.544 37.184-34.432 42.432-41.792a52.224 52.224 0 0 0 10.496-29.888c0-10.88-3.008-19.264-9.152-25.152a35.2 35.2 0 0 0-25.408-8.768c-10.624 0-19.2 3.072-25.472 9.216-6.272 6.144-9.92 16.384-10.88 30.592l-50.944-4.864c3.008-26.88 12.544-46.208 28.544-57.92 16-11.712 36.032-17.536 60.032-17.536 26.304 0 47.04 6.784 62.08 20.352 15.04 13.568 22.528 30.4 22.528 50.56 0 11.52-2.176 22.4-6.4 32.832a132.224 132.224 0 0 1-20.48 32.64 320.192 320.192 0 0 1-33.536 32.512 533.952 533.952 0 0 0-30.656 28.16 84.672 84.672 0 0 0-10.432 13.568H243.2zM64 889.216l51.008-5.632a42.368 42.368 0 0 0 13.12 27.136 37.76 37.76 0 0 0 25.856 9.408 37.12 37.12 0 0 0 27.52-11.264 41.408 41.408 0 0 0 11.136-30.464 38.656 38.656 0 0 0-10.688-28.672 35.584 35.584 0 0 0-26.048-10.624c-6.784 0-14.848 1.216-24.192 3.584l5.76-39.168c14.272 0.32 25.152-2.496 32.64-8.448a28.992 28.992 0 0 0 11.264-23.872 25.984 25.984 0 0 0-8.256-20.16 31.296 31.296 0 0 0-21.952-7.552c-8.96 0-16.64 2.88-23.04 8.576-6.4 5.696-10.24 14.016-11.648 24.96l-48.512-7.552a94.08 94.08 0 0 1 15.232-36.288c6.848-9.088 16.32-16.192 28.544-21.376a103.68 103.68 0 0 1 40.96-7.808c25.856 0 46.592 7.552 62.208 22.592 12.928 12.288 19.328 26.24 19.328 41.728 0 21.952-13.184 39.552-39.552 52.672 15.744 3.072 28.352 9.984 37.76 20.672 9.472 10.688 14.208 23.68 14.208 38.848 0 21.952-8.832 40.704-26.496 56.256-17.6 15.488-39.552 23.232-65.792 23.232-24.896 0-45.44-6.528-61.888-19.584a74.88 74.88 0 0 1-28.48-51.2z" p-id="9780" fill="currentColor"></path></svg>