<?xml version="1.0" standalone="no"?><!DOCTYPE svg PUBLIC "-//W3C//DTD SVG 1.1//EN" "http://www.w3.org/Graphics/SVG/1.1/DTD/svg11.dtd"><svg t="1754155100925" class="icon" viewBox="0 0 1024 1024" version="1.1" xmlns="http://www.w3.org/2000/svg" p-id="1492" width="32" height="32" xmlns:xlink="http://www.w3.org/1999/xlink"><path d="M815.848034 151.583423m28.284272 28.284271l0 0q28.284271 28.284271 0 56.568543l-424.264069 424.264069q-28.284271 28.284271-56.568543 0l0 0q-28.284271-28.284271 0-56.568543l424.264069-424.264069q28.284271-28.284271 56.568543 0Z" fill="#2c2c2c" p-id="1493"></path><path d="M334.82 112c22.092 0 40 17.908 40 40 0 21.72-17.308 39.392-38.88 39.984l-1.12 0.016H232c-21.72 0-39.392 17.308-39.984 38.88L192 232v560c0 21.72 17.308 39.392 38.88 39.984L232 832h560c21.72 0 39.392-17.308 39.984-38.88L832 792v-91.988c0-22.088 17.908-40 40-40 21.72 0 39.392 17.308 39.984 38.88l0.016 1.12V792c0 65.612-52.656 118.924-118.016 119.984L792 912H232c-65.612 0-118.924-52.656-119.984-118.016L112 792V232c0-65.612 52.656-118.924 118.016-119.984L232 112h102.82zM792.188 112c65.612 0 118.928 52.656 119.984 118.016l0.016 1.984v200c0 22.092-17.908 40-40 40-21.716 0-39.388-17.308-39.984-38.88l-0.016-1.12V232c0-21.72-17.304-39.392-38.88-39.984l-1.12-0.016h-200c-22.088 0-40-17.908-40-40 0-21.72 17.308-39.392 38.88-39.984l1.12-0.016h200z" fill="#2c2c2c" p-id="1494"></path></svg>