<?xml version="1.0" standalone="no"?><!DOCTYPE svg PUBLIC "-//W3C//DTD SVG 1.1//EN" "http://www.w3.org/Graphics/SVG/1.1/DTD/svg11.dtd"><svg t="1753940851451" class="icon" viewBox="0 0 1024 1024" version="1.1" xmlns="http://www.w3.org/2000/svg" p-id="21921" width="32" height="32" xmlns:xlink="http://www.w3.org/1999/xlink"><path d="M896 800.339c17.673 0 32 14.327 32 32 0 17.496-14.042 31.713-31.47 31.995l-0.53 0.005H128c-17.673 0-32-14.327-32-32 0-17.497 14.042-31.713 31.47-31.996l0.53-0.004h768z m0-213.226c17.673 0 32 14.327 32 32 0 17.496-14.042 31.713-31.47 31.996l-0.53 0.004H128c-17.673 0-32-14.327-32-32 0-17.496 14.042-31.713 31.47-31.996l0.53-0.004h768zM262.556 176.965l0.37 0.68 0.36 0.7 85.057 170.028c0.2 0.382 0.394 0.768 0.58 1.158l21.03 42.04c7.906 15.805 1.503 35.028-14.303 42.935-15.648 7.828-34.644 1.63-42.695-13.83l-0.24-0.472-12.488-24.963H169.106l-12.487 24.963c-7.907 15.805-27.13 22.209-42.936 14.302-15.647-7.828-22.08-26.746-14.535-42.46l0.233-0.476 21.03-42.038c0.181-0.382 0.37-0.761 0.567-1.135l85.07-170.052c11.56-23.109 44.112-23.569 56.508-1.38zM896 373.887c17.673 0 32 14.327 32 32 0 17.496-14.042 31.713-31.47 31.996l-0.53 0.004H512c-17.673 0-32-14.327-32-32 0-17.496 14.042-31.713 31.47-31.996l0.53-0.004h384zM234.666 264.186l-33.544 67.055h67.089l-33.545-67.055zM896 160.661c17.673 0 32 14.327 32 32 0 17.497-14.042 31.713-31.47 31.996l-0.53 0.004H512c-17.673 0-32-14.327-32-32 0-17.496 14.042-31.713 31.47-31.995l0.53-0.005h384z" p-id="21922" fill="currentColor"></path></svg>