<?xml version="1.0" standalone="no"?><!DOCTYPE svg PUBLIC "-//W3C//DTD SVG 1.1//EN" "http://www.w3.org/Graphics/SVG/1.1/DTD/svg11.dtd"><svg t="1753945520686" class="icon" viewBox="0 0 1024 1024" version="1.1" xmlns="http://www.w3.org/2000/svg" p-id="26570" width="32" height="32" xmlns:xlink="http://www.w3.org/1999/xlink"><path d="M128.896 131.2v761.6h76.8V131.2h-76.8z m362.88 368.448q-19.2 6.4-39.296 6.4-6.08 0-12.096-0.512-6.016-0.64-11.904-1.792-5.952-1.216-11.712-2.944t-11.328-4.032q-5.632-2.368-10.88-5.184-5.376-2.88-10.368-6.208-5.056-3.328-9.728-7.168-4.672-3.84-8.96-8.128-4.224-4.288-8.064-8.96-3.84-4.608-7.168-9.6-3.392-5.12-6.208-10.432-2.88-5.312-5.12-10.88-2.368-5.568-4.096-11.328-1.792-5.76-2.944-11.712-1.216-5.952-1.792-11.968-0.64-6.016-0.64-12.032t0.64-12.032q0.64-6.016 1.792-11.968 1.152-5.888 2.944-11.648 1.728-5.76 4.032-11.392 2.304-5.568 5.12-10.88 2.88-5.376 6.272-10.368 3.328-4.992 7.168-9.664 3.84-4.672 8.064-8.96 4.288-4.288 8.96-8.128 4.672-3.84 9.728-7.168 4.992-3.328 10.304-6.208 5.312-2.816 10.88-5.12 5.632-2.368 11.392-4.096 5.76-1.728 11.712-2.944 5.888-1.152 11.904-1.728 6.016-0.64 12.096-0.64 5.824 0 11.712 0.64 5.824 0.512 11.648 1.6 5.76 1.152 11.392 2.816t11.072 3.84q5.44 2.176 10.688 4.928 5.184 2.688 10.176 5.888 4.928 3.2 9.536 6.784 4.608 3.648 8.832 7.744 4.224 4.096 8.064 8.512 3.84 4.48 7.232 9.28 3.392 4.8 6.336 9.92 2.944 5.12 5.312 10.432 2.432 5.376 4.352 10.88 1.92 5.632 3.2 11.328 1.408 5.76 2.176 11.52 0.832 5.824 1.088 11.712h0.256q14.464 125.696-50.944 244.48-68.288 124.16-190.592 176.512l-30.208-70.592q97.92-41.92 153.6-142.912 23.36-42.56 34.304-85.888z m313.664 1.408q-17.088 5.056-34.88 5.056-6.016 0-12.032-0.64-6.016-0.576-11.904-1.728-5.952-1.216-11.712-2.944t-11.392-4.032q-5.568-2.368-10.88-5.184-5.312-2.88-10.368-6.208-4.992-3.328-9.664-7.168-4.672-3.84-8.96-8.128-4.288-4.288-8.064-8.96-3.84-4.608-7.232-9.6-3.328-5.12-6.208-10.432-2.816-5.312-5.12-10.88-2.304-5.568-4.096-11.328-1.728-5.76-2.88-11.712-1.216-5.952-1.792-11.968-0.64-6.016-0.64-12.032t0.64-12.032q0.64-6.016 1.792-11.968 1.152-5.888 2.88-11.648 1.792-5.76 4.096-11.392 2.304-5.568 5.12-10.88 2.88-5.376 6.208-10.368 3.392-4.992 7.232-9.664 3.84-4.672 8.064-8.96 4.288-4.288 8.96-8.128 4.672-3.84 9.664-7.168 5.056-3.328 10.368-6.208 5.312-2.816 10.88-5.12 5.568-2.368 11.392-4.096 5.76-1.728 11.712-2.944 5.888-1.152 11.904-1.728 6.016-0.64 12.032-0.64 5.44 0 10.816 0.512 5.376 0.448 10.688 1.408 5.376 0.96 10.56 2.368 5.248 1.408 10.304 3.2 5.12 1.92 9.984 4.224 4.864 2.304 9.6 5.056 4.608 2.688 9.024 5.76 4.48 3.2 8.576 6.656 4.096 3.52 7.872 7.36 3.84 3.84 7.296 8 3.456 4.16 6.528 8.64 3.072 4.48 5.76 9.152 2.624 4.672 4.864 9.6 2.24 4.928 4.032 10.048 1.792 5.12 3.2 10.304 1.28 5.248 2.176 10.624l0.64-0.128q14.528 126.72-49.92 251.2-68.672 132.736-190.464 184.832l-30.208-70.592q96.448-41.28 152.512-149.568 20.16-38.912 31.04-77.824z" fill="currentColor" p-id="26571"></path></svg>