<?xml version="1.0" standalone="no"?><!DOCTYPE svg PUBLIC "-//W3C//DTD SVG 1.1//EN" "http://www.w3.org/Graphics/SVG/1.1/DTD/svg11.dtd"><svg t="1754044854256" class="icon" viewBox="0 0 1024 1024" version="1.1" xmlns="http://www.w3.org/2000/svg" p-id="16285" width="32" height="32" xmlns:xlink="http://www.w3.org/1999/xlink"><path d="M938.666667 426.666667a85.333333 85.333333 0 0 1-85.333334 85.333333H170.666667a85.333333 85.333333 0 0 1-85.333334-85.333333V128h85.333334v85.333333h170.666666V128h85.333334v85.333333h170.666666V128h85.333334v85.333333h170.666666V128h85.333334v298.666667M170.666667 426.666667h170.666666V298.666667H170.666667v128m256 0h170.666666V298.666667h-170.666666v128m426.666666 0V298.666667h-170.666666v128h170.666666m-384 170.666666h85.333334v128h128v85.333334h-128v128h-85.333334v-128H341.333333v-85.333334h128v-128z" fill="currentColor" p-id="16286"></path></svg>