<?xml version="1.0" standalone="no"?><!DOCTYPE svg PUBLIC "-//W3C//DTD SVG 1.1//EN" "http://www.w3.org/Graphics/SVG/1.1/DTD/svg11.dtd"><svg t="1754044996642" class="icon" viewBox="0 0 1024 1024" version="1.1" xmlns="http://www.w3.org/2000/svg" p-id="19087" width="32" height="32" xmlns:xlink="http://www.w3.org/1999/xlink"><path d="M405.48 54c29.16 0 52.863 23.394 53.334 52.443l0.007 0.882v810.35c0 29.162-23.41 52.847-52.458 53.325H106.716c-29.16 0-52.862-23.394-53.333-52.443l-0.007-0.882V725.75c0-17.673 14.326-32 32-32 17.496 0 31.713 14.042 31.995 31.47l0.005 0.53-0.001 181.25h277.446l-0.001-362.475-232.59 0.192 47.246 47.211c12.501 12.492 12.509 32.754 0.016 45.255-12.367 12.376-32.349 12.507-44.877 0.387l-0.378-0.37L62.381 535.416c-12.383-12.373-12.507-32.368-0.372-44.894l0.372-0.377 101.856-101.784c12.502-12.493 32.763-12.485 45.255 0.016 12.368 12.376 12.484 32.358 0.355 44.878l-0.37 0.377-47.12 47.084 232.463-0.192 0.001-362.525H117.375v181.25c0 17.496-14.041 31.713-31.47 31.996l-0.53 0.004c-17.496 0-31.713-14.042-31.995-31.47l-0.004-0.53V107.325c0-29.161 23.41-52.847 52.458-53.325h299.647z m512.169 0c29.16 0 52.862 23.394 53.333 52.443l0.007 0.882V299.25c0 17.673-14.327 32-32 32-17.496 0-31.713-14.042-31.995-31.47l-0.005-0.53V118H629.543l-0.001 362.526 232.276 0.191-47.295-47.261c-12.501-12.492-12.508-32.754-0.016-45.255 12.367-12.376 32.35-12.507 44.877-0.387l0.378 0.37L961.619 489.97c6.757 6.752 9.864 15.773 9.32 24.612-0.504 9.1-4.81 17.184-11.354 22.693l-99.823 99.748c-12.501 12.492-32.763 12.485-45.255-0.016-12.367-12.376-12.484-32.358-0.355-44.878l0.371-0.377 47.068-47.034-232.049-0.192 0.001 362.475h277.446V725.75c0-17.496 14.042-31.713 31.471-31.996l0.53-0.004c17.496 0 31.712 14.042 31.995 31.47l0.004 0.53v191.925c0 29.162-23.41 52.847-52.458 53.325H618.884c-29.16 0-52.862-23.394-53.333-52.443l-0.007-0.882v-810.35c0-29.161 23.41-52.847 52.458-53.325H917.65z" p-id="19088" fill="currentColor"></path></svg>