<?xml version="1.0" standalone="no"?><!DOCTYPE svg PUBLIC "-//W3C//DTD SVG 1.1//EN" "http://www.w3.org/Graphics/SVG/1.1/DTD/svg11.dtd"><svg t="1754044931783" class="icon" viewBox="0 0 1024 1024" version="1.1" xmlns="http://www.w3.org/2000/svg" p-id="17993" width="32" height="32" xmlns:xlink="http://www.w3.org/1999/xlink"><path d="M681.5 514.824c0 48-72 48-72 0v-99.007c0-19.882 16.118-36 36-36H912c48 0 48 72 0 72H681.5v63.007z m-339 166H112c-48 0-48-72 0-72h230.5V451.817H112c-48 0-48-72 0-72h230.5V112c0-48 72-48 72 0v267.817h195V112c0-48 72-48 72 0v303.817c0 19.882-16.118 36-36 36h-231v157.007h121c48 0 48 72 0 72h-121V912c0 48-72 48-72 0V680.824zM148 876h387.412c19.883 0 36 16.118 36 36s-16.117 36-36 36H144c-37.555 0-68-30.445-68-68V144c0-37.555 30.445-68 68-68h736c37.555 0 68 30.445 68 68v370.824c0 19.883-16.118 36-36 36s-36-16.117-36-36V148H148v728z" p-id="17994" fill="currentColor"></path><path d="M792.208 741.296l94.752-94.752c14.06-14.059 36.853-14.059 50.912 0 14.059 14.059 14.059 36.853 0 50.912l-94.752 94.752 94.752 94.752c14.059 14.06 14.059 36.853 0 50.912-14.059 14.059-36.853 14.059-50.912 0l-94.752-94.752-94.752 94.752c-14.059 14.059-36.853 14.059-50.912 0-14.059-14.059-14.059-36.853 0-50.912l94.752-94.752-94.752-94.752c-14.059-14.059-14.059-36.853 0-50.912 14.059-14.059 36.853-14.059 50.912 0l94.752 94.752z" p-id="17995" fill="currentColor"></path></svg>