<?xml version="1.0" standalone="no"?><!DOCTYPE svg PUBLIC "-//W3C//DTD SVG 1.1//EN" "http://www.w3.org/Graphics/SVG/1.1/DTD/svg11.dtd"><svg t="1753940589306" class="icon" viewBox="0 0 1024 1024" version="1.1" xmlns="http://www.w3.org/2000/svg" p-id="7867" width="32" height="32" xmlns:xlink="http://www.w3.org/1999/xlink"><path d="M192 720a128 128 0 1 1 0 256 128 128 0 0 1 0-256z m0 64a64 64 0 1 0 0 128 64 64 0 0 0 0-128z m768 32v64H512v-64h448zM192 400a128 128 0 1 1 0 256 128 128 0 0 1 0-256z m0 64a64 64 0 1 0 0 128 64 64 0 0 0 0-128z m768 32v64H512v-64h448z m-557.12-448L448 93.12l-256 256-128-128 45.12-45.12L192 258.88 402.88 48z m557.12 128v64H512v-64h448z" fill="#2c2c2c" p-id="7868"></path></svg>